<svg width="150" height="65" viewBox="0 0 150 65" fill="none" xmlns="http://www.w3.org/2000/svg">
<g clip-path="url(#clip0_2:2)">
<path d="M28.1051 34.8459L30.1559 40.8689C31.2656 44.126 32.2563 46.7301 32.3855 46.7301C32.3876 46.7301 32.3895 46.7294 32.3911 46.7278C32.5331 46.6024 36.5473 34.9446 36.5473 34.9446H44.3276L34.9411 62.2947H29.5336C29.5336 62.2947 23.7616 45.6243 23.7853 45.5613L17.7602 62.085H12.4071L3.13875 34.8459L10.8813 34.8511C10.8813 34.8511 15.1223 46.8726 15.1791 46.8726L15.1795 46.8722L19.4114 34.8454L28.1051 34.8459ZM0.495469 32.9517L1.34742 35.4553L10.6155 62.6943L11.052 63.9773H19.0847L19.5384 62.733L23.7218 51.2601C24.0823 52.3092 24.472 53.4396 24.8616 54.569C25.8213 57.3511 26.7827 60.1326 27.7453 62.9135L28.1864 64.1873H36.2925L36.7312 62.9093L46.1175 35.5593L46.9779 33.0522H35.1975L34.758 34.3286C33.9516 36.6705 33.1397 39.0105 32.3224 41.3486C32.1961 40.9856 32.0709 40.6221 31.9472 40.2581L29.8964 34.2354L29.4598 32.9531H18.0712L17.6264 34.2178L15.1537 41.2448C14.3217 38.9046 13.4925 36.5634 12.6661 34.2213L12.2208 32.9594L10.8827 32.9585L3.14016 32.9536L0.495469 32.9517ZM147.929 34.74L147.911 41.9088C147.911 41.9088 140.189 41.8833 136.264 41.8833C134.958 41.8833 134.071 41.8865 134.029 41.8938C133.354 42.0171 132.922 43.4559 133.114 44.0871C133.208 44.4065 133.917 45.4495 134.683 46.4079C135.447 47.3662 136.703 48.9347 137.469 49.8921C139.437 52.3476 139.707 52.8323 139.889 54.2425C140.185 56.5331 139.102 59.0114 137.091 60.6459C135.075 62.2854 135.164 62.2968 120.205 62.2968H119.548C110.45 62.2943 105.639 62.219 104.938 62.0632C103.694 61.7817 101.711 60.1636 96.4718 55.1369C94.5872 53.3306 92.85 51.749 92.7609 51.7486C92.7584 51.7486 92.7574 51.7502 92.7574 51.7528L92.6955 62.2978L84.2037 62.2605L84.1512 35.0615H103.09C108.798 35.2675 112.661 40.954 111.892 44.5804C111.718 45.4033 111.273 46.5961 110.903 47.2298C110.144 48.5308 108.211 50.201 106.642 50.9179C106.063 51.1797 105.59 51.4849 105.59 51.5939C105.59 51.9984 107.497 53.876 108.211 54.1743C108.821 54.4296 110.598 54.4863 118.433 54.4863L120.942 54.4868C128.818 54.4868 128.421 54.43 129.03 53.1288C129.456 52.2229 129.132 51.6813 126.135 48.3054C122.338 44.5275 122.735 42.7179 122.709 41.3812C122.655 39.7795 123.916 34.7416 130.471 34.7416L147.929 34.74ZM97.0533 47.3055C100.689 47.3055 101.427 47.2493 102.201 46.9132C104.813 45.7774 104.952 42.4235 102.447 40.9352C101.899 40.6085 101.193 40.5548 97.2523 40.5333L92.6918 40.5091C92.7295 40.5443 92.6773 47.0308 92.6773 47.0308C92.6773 47.0308 93.8196 47.3055 97.0533 47.3055ZM149.826 32.8476H130.471C126.678 32.8476 124.435 34.3443 123.222 35.6004C121.247 37.6425 120.783 40.214 120.818 41.4265C120.82 41.5275 120.819 41.6311 120.817 41.7391C120.8 43.7095 121.09 45.9398 124.759 49.6036C125.483 50.4199 126.696 51.7889 127.155 52.4693C126.153 52.5925 123.611 52.5925 120.942 52.5925H119.808L118.433 52.5921C113.725 52.5921 109.754 52.5783 108.941 52.4179C108.827 52.3441 108.667 52.2159 108.492 52.0636C110.119 51.0623 111.763 49.5091 112.538 48.1816C113.008 47.3742 113.526 45.9951 113.744 44.9721C114.227 42.6954 113.431 39.9487 111.615 37.623C109.496 34.9094 106.414 33.2859 103.159 33.1685L103.125 33.1671H82.2553L82.2593 35.0639L82.3118 62.2626L82.3155 64.143L84.1959 64.1512L92.6878 64.1887L94.5769 64.1967L94.5884 62.3074L94.6249 55.99C94.7981 56.1546 94.9774 56.3259 95.1619 56.5022C100.893 61.9997 102.816 63.5229 104.52 63.9084C104.989 64.0125 105.763 64.1854 119.547 64.1894H120.204C127.667 64.1894 131.413 64.1894 133.64 63.9743C136.192 63.7275 137.014 63.1488 138.244 62.1464L138.285 62.1131C140.812 60.0579 142.146 56.9491 141.766 53.9993C141.518 52.0809 141.01 51.2838 138.946 48.708L138.332 47.9416C137.608 47.0372 136.884 46.1325 136.161 45.2271C135.692 44.6395 135.322 44.118 135.1 43.7761C135.392 43.7754 135.772 43.7749 136.264 43.7749C140.142 43.7749 147.828 43.8002 147.905 43.8007L149.8 43.8068L149.804 41.9123L149.822 34.743L149.826 32.8476ZM94.5818 45.344L94.5905 43.7927C94.593 43.3195 94.5954 42.8456 94.5956 42.4113L97.2422 42.4251C98.763 42.4333 101.051 42.446 101.498 42.5725C102.067 42.9183 102.385 43.4529 102.35 44.0062C102.331 44.3053 102.189 44.8551 101.446 45.1772C101.032 45.3574 100.372 45.4132 97.0537 45.4132C96.0007 45.4132 95.1886 45.3827 94.5818 45.344ZM66.9448 34.6284L76.4756 62.0498L68.7094 62.085L67.4203 57.9665L53.5345 57.8552L52.3092 61.9786L44.6212 61.8979L54.0312 34.6399L66.9448 34.6284ZM60.6994 38.6486C60.6799 38.7274 59.4827 42.0124 58.2813 45.2967C57.0703 48.6084 55.8551 51.9201 55.8382 51.9457C55.8705 51.9363 60.1711 51.9269 62.9273 51.9269C64.2173 51.9269 65.1687 51.9293 65.1865 51.9335L65.1867 51.9347V51.934L65.1865 51.9335C65.1382 51.809 60.7134 38.8087 60.6994 38.6486L60.6996 38.6472L60.6994 38.6486ZM68.2901 32.7344L66.9434 32.7358L54.0298 32.748L52.6823 32.7494L52.2427 34.0235L42.8325 61.2813L41.9756 63.7636L44.6018 63.7907L52.2898 63.8714L53.7169 63.8864L54.1235 62.5186L54.9434 59.76L66.027 59.8486L66.904 62.6515L67.3216 63.9855L68.719 63.9792L76.485 63.944L79.133 63.9314L78.2632 61.4304L68.7321 34.0092L68.2901 32.7344ZM58.5621 50.0369C58.9207 49.06 59.4035 47.74 60.0588 45.9473L60.6251 44.399L61.1381 45.9119C61.2909 46.3629 61.9624 48.3417 62.5385 50.0348C60.8257 50.0348 59.5366 50.035 58.5621 50.0369ZM70.1571 1.89911V8.66435H56.6074V29.3561H48.529V8.64818L32.7131 8.69294C30.8065 8.69294 30.551 10.2115 30.551 10.7934C30.551 11.508 31.017 12.2222 33.5766 15.4631C35.2371 17.568 36.7629 19.669 36.964 20.1279C38.0616 22.6544 36.6422 26.5905 34.0566 28.1897C32.2139 29.3283 32.5287 29.3564 18.8445 29.3564H1.89234V21.7556H25.0512L25.7346 21.28C26.1961 20.9587 26.4633 20.5162 26.565 19.9104C26.707 19.0399 26.6337 18.9265 23.7736 15.7047C20.3932 11.8959 20.036 11.2008 20.2111 8.76935C20.4098 5.99458 22.8841 1.96333 27.2084 1.96333L70.1571 1.89911ZM72.0497 0.00372314L70.1541 0.00677L27.2053 0.0707544C24.7315 0.0707544 22.4339 1.13997 20.7375 3.08036C19.3622 4.65372 18.4594 6.73029 18.3232 8.63411C18.093 11.8303 18.8287 12.9853 22.358 16.9615C23.3822 18.115 24.356 19.2124 24.6811 19.6781C24.6776 19.691 24.6734 19.7036 24.6682 19.7158C24.6647 19.7189 24.6593 19.7226 24.6518 19.728L24.4573 19.8633H0V31.2487H18.8445C25.5914 31.2487 28.9216 31.2426 30.8836 31.0983C33.1284 30.9342 33.8447 30.5491 34.9177 29.8823L35.0517 29.7991C38.4253 27.7127 40.1639 22.7435 38.6998 19.3734C38.2479 18.3426 35.3873 14.7026 35.0625 14.291C34.1646 13.1536 32.6822 11.2772 32.4476 10.7341C32.4532 10.6886 32.4645 10.6411 32.4762 10.6085C32.5153 10.5984 32.5901 10.5851 32.7131 10.5851L46.6366 10.5454V31.2483H58.4998V10.5567H72.0497V0.00372314ZM92.1708 2.11872L101.676 29.6111L93.9237 29.5685L92.6653 25.45L78.8412 25.3886L77.6062 29.3559H69.7127L79.113 2.11872H92.1708ZM81.0975 19.5342L90.5128 19.5222V19.5225C90.5452 19.5225 85.9373 5.9913 85.9066 5.98193C85.8731 5.98075 80.9916 19.5342 81.0975 19.5342ZM93.5191 0.226379H77.7649L77.3252 1.50161L67.9242 28.7388L67.058 31.2485H79.0005L79.4145 29.9184L80.2331 27.2875L91.2645 27.3365L92.1157 30.1216L92.523 31.4531L93.9157 31.4608L101.668 31.5037L104.34 31.5185L103.467 28.9929L93.9623 1.50021L93.5191 0.226379ZM83.7265 17.6386C84.4308 15.6403 85.1416 13.6446 85.8588 11.651C86.5387 13.6441 87.2159 15.6384 87.8904 17.6334L83.7265 17.6386ZM118.865 2.11872C124.997 2.11872 129.253 2.20638 130.071 2.34818C131.964 2.67747 133.674 3.68716 134.956 5.23943C136.297 6.86177 136.605 7.63802 136.78 9.86153C137.031 13.0008 135.538 15.7092 132.592 17.4663C131.734 17.9798 130.852 18.4788 130.632 18.5782C130.294 18.7317 130.339 18.8789 130.944 19.5886C131.334 20.0454 132.011 20.6958 132.446 21.0337L133.241 21.6511L147.926 21.8615L148.07 29.3559H139.066C132.103 29.3559 129.874 29.2917 129.221 29.0723C128.244 28.7409 125.893 26.7492 121.114 22.2028L117.703 18.9569L117.739 29.3559H108.976V2.11872H118.865ZM117.575 14.3653H122.228C126.755 14.3653 126.897 14.3508 127.543 13.8663C128.698 13.0005 129.107 12.1085 128.984 10.7388C128.859 9.32622 128.314 8.59122 126.949 7.99966C126.181 7.66357 125.44 7.60943 121.811 7.60943H117.575V14.3653ZM118.865 0.226379H107.085V31.2483H119.639L119.633 29.3493L119.612 23.3843L119.811 23.5734C125.721 29.1965 127.464 30.4746 128.615 30.8641C129.497 31.1622 130.976 31.2483 139.067 31.2483H150L149.963 29.3196L149.819 21.8254L149.785 19.9961L147.955 19.9699L133.903 19.7686L133.609 19.5396C133.515 19.4662 133.402 19.3697 133.28 19.2604L133.566 19.0908C137.115 16.9729 138.975 13.5539 138.668 9.71083C138.464 7.11841 138.001 5.95052 136.416 4.03333C134.858 2.14825 132.72 0.887786 130.396 0.483957C129.104 0.259895 122.617 0.226379 118.865 0.226379ZM119.467 9.50153H121.811C125.129 9.50153 125.786 9.55685 126.192 9.7338C126.961 10.0666 127.039 10.2283 127.099 10.9061C127.159 11.58 127.076 11.8509 126.408 12.3515L126.355 12.3909C125.914 12.4727 124.277 12.4727 122.228 12.4727H119.467V9.50153Z" fill="#FFC500"/>
</g>
<defs>
<clipPath id="clip0_2:2">
<rect width="150" height="64.2" fill="white"/>
</clipPath>
</defs>
</svg>
